<svg width="248" height="248" viewBox="0 0 248 248" fill="none" xmlns="http://www.w3.org/2000/svg">
<circle cx="124" cy="124" r="123.5" fill="#FF6B6B" fill-opacity="0.05" stroke="#FF6B6B" stroke-dasharray="5 5"/>
<g clip-path="url(#clip0_29341_703)">
<path d="M83 109.71V94.6256C83 91.5239 85.5234 89.0005 88.625 89.0005H103.71C105.09 89.0005 106.21 90.1197 106.21 91.5005C106.21 92.8813 105.09 94.0005 103.71 94.0005H88.625C88.2863 94.0005 88 94.2867 88 94.6256V109.71C88 111.091 86.8806 112.21 85.5 112.21C84.1194 112.21 83 111.091 83 109.71ZM103.708 164H88.625C88.2863 164 88 163.713 88 163.374V148.29C88 146.909 86.8806 145.79 85.5 145.79C84.1194 145.79 83 146.909 83 148.29V163.374C83 166.476 85.5234 169 88.625 169H103.708C105.088 169 106.208 167.88 106.208 166.5C106.208 165.119 105.088 164 103.708 164V164ZM160.5 145.79C159.119 145.79 158 146.909 158 148.29V163.374C158 163.713 157.714 164 157.375 164H142.29C140.91 164 139.79 165.119 139.79 166.5C139.79 167.88 140.91 169 142.29 169H157.375C160.477 169 163 166.476 163 163.374V148.29C163 146.909 161.881 145.79 160.5 145.79V145.79ZM157.375 89.0005H142.291C140.911 89.0005 139.791 90.1197 139.791 91.5005C139.791 92.8813 140.911 94.0005 142.291 94.0005H157.375C157.714 94.0005 158 94.2867 158 94.6256V109.71C158 111.091 159.119 112.21 160.5 112.21C161.881 112.21 163 111.091 163 109.71V94.6256C163 91.5239 160.477 89.0005 157.375 89.0005V89.0005ZM110.357 109.329C110.357 102.358 116.029 96.6867 123 96.6867C129.971 96.6867 135.643 102.358 135.643 109.329C135.643 116.3 129.971 121.971 123 121.971C116.029 121.971 110.357 116.3 110.357 109.329ZM115.357 109.329C115.357 113.543 118.786 116.971 123 116.971C127.214 116.971 130.643 113.543 130.643 109.329C130.643 105.115 127.214 101.687 123 101.687C118.786 101.687 115.357 105.115 115.357 109.329ZM123 126.596C137.587 126.596 149.454 138.463 149.454 153.05C149.454 154.431 148.335 155.55 146.954 155.55H99.0456C97.665 155.55 96.5456 154.431 96.5456 153.05C96.5456 138.463 108.413 126.596 123 126.596V126.596ZM123 131.596C112.015 131.596 102.933 139.894 101.69 150.55H144.31C143.067 139.894 133.985 131.596 123 131.596V131.596Z" fill="#FF6B00"/>
</g>
<mask id="mask0_29341_703" style="mask-type:alpha" maskUnits="userSpaceOnUse" x="0" y="0" width="248" height="124">
<rect width="248" height="124" fill="#C4C4C4"/>
</mask>
<g mask="url(#mask0_29341_703)">
<circle cx="124" cy="124" r="123.5" fill="url(#paint0_linear_29341_703)" stroke="#FF6B6B" stroke-dasharray="5 5"/>
</g>
<defs>
<linearGradient id="paint0_linear_29341_703" x1="124" y1="0" x2="124" y2="248" gradientUnits="userSpaceOnUse">
<stop stop-color="#5C428F"/>
<stop offset="1" stop-color="#5C428F" stop-opacity="0"/>
</linearGradient>
<clipPath id="clip0_29341_703">
<rect width="80" height="80" fill="white" transform="translate(83 89)"/>
</clipPath>
</defs>
</svg>
