<svg width="98" height="98" viewBox="0 0 98 98" fill="none" xmlns="http://www.w3.org/2000/svg">
<g clip-path="url(#clip0_29341_660)">
<g filter="url(#filter0_d_29341_660)">
<path d="M24.5 49H8.16663C8.16663 26.5416 26.5416 8.16663 49 8.16663C71.4583 8.16663 89.8333 26.5416 89.8333 49C89.8333 71.4583 71.4583 89.8333 49 89.8333V73.5H32.6666V57.1666H49V73.5C62.5566 73.5 73.5 62.5158 73.5 49C73.5 35.4841 62.5158 24.5 49 24.5C35.4841 24.5 24.5 35.4841 24.5 49ZM32.6666 73.5V85.75H20.4166V73.5H32.6666ZM12.25 65.3333H20.4166V73.5H12.25V65.3333Z" fill="#FF6B00"/>
</g>
</g>
<defs>
<filter id="filter0_d_29341_660" x="-5.83337" y="2.16663" width="109.667" height="109.667" filterUnits="userSpaceOnUse" color-interpolation-filters="sRGB">
<feFlood flood-opacity="0" result="BackgroundImageFix"/>
<feColorMatrix in="SourceAlpha" type="matrix" values="0 0 0 0 0 0 0 0 0 0 0 0 0 0 0 0 0 0 127 0" result="hardAlpha"/>
<feOffset dy="8"/>
<feGaussianBlur stdDeviation="7"/>
<feComposite in2="hardAlpha" operator="out"/>
<feColorMatrix type="matrix" values="0 0 0 0 0 0 0 0 0 0 0 0 0 0 0 0 0 0 0.1 0"/>
<feBlend mode="normal" in2="BackgroundImageFix" result="effect1_dropShadow_29341_660"/>
<feBlend mode="normal" in="SourceGraphic" in2="effect1_dropShadow_29341_660" result="shape"/>
</filter>
<clipPath id="clip0_29341_660">
<rect width="98" height="98" fill="white"/>
</clipPath>
</defs>
</svg>
