<svg width="20" height="20" viewBox="0 0 20 20" fill="none" xmlns="http://www.w3.org/2000/svg">
<path d="M1.68917 14.1858C1.74001 14.1042 1.81917 14.0983 1.93001 14.1692C4.45917 15.6358 7.21167 16.3733 10.185 16.3733C12.1692 16.3733 14.1267 16.0008 16.0608 15.2633L16.2792 15.1658C16.375 15.1233 16.4417 15.0958 16.4825 15.075C16.64 15.0133 16.7542 15.0442 16.8475 15.1658C16.9325 15.285 16.9108 15.3983 16.7642 15.4992C16.5867 15.6308 16.3475 15.7842 16.0642 15.9533C15.2 16.4692 14.2283 16.8683 13.1542 17.1542C12.1295 17.4297 11.0736 17.572 10.0125 17.5775C8.43834 17.5775 6.94584 17.3025 5.53834 16.7525C4.14978 16.209 2.87068 15.4194 1.76251 14.4217C1.69251 14.3708 1.65834 14.3192 1.65834 14.2683C1.65834 14.2358 1.67167 14.2067 1.69251 14.1775L1.68917 14.1858V14.1858ZM6.25501 9.86165C6.25501 9.16165 6.42751 8.56582 6.77084 8.06832C7.11584 7.57499 7.58501 7.20082 8.19001 6.94665C8.74501 6.71249 9.41084 6.54665 10.215 6.44499C10.4867 6.41415 10.9325 6.37332 11.5483 6.32415V6.06582C11.5483 5.42165 11.4783 4.98332 11.3417 4.76249C11.1317 4.46332 10.8 4.31165 10.3392 4.31165H10.2142C9.88084 4.34415 9.59251 4.44665 9.34834 4.63082C9.10328 4.81894 8.93599 5.09064 8.87834 5.39415C8.83751 5.60249 8.73501 5.71665 8.57751 5.74915L6.82334 5.52915C6.64917 5.48665 6.56417 5.40415 6.56417 5.25749C6.56417 5.22665 6.56917 5.19582 6.57917 5.15499C6.75334 4.25665 7.17501 3.58749 7.84584 3.15165C8.52417 2.72332 9.30584 2.47332 10.2025 2.42249H10.5783C11.7275 2.42249 12.6358 2.72332 13.2817 3.31915C13.3775 3.42165 13.4708 3.52749 13.565 3.65082C13.6483 3.76665 13.7217 3.87082 13.76 3.96499C13.8125 4.05749 13.8658 4.19415 13.8967 4.36082C13.9392 4.53832 13.97 4.65415 13.9908 4.71582C14.01 4.78749 14.0333 4.92415 14.0442 5.14415C14.0492 5.36249 14.0575 5.48582 14.0575 5.52832V9.19998C14.0575 9.46165 14.0983 9.70165 14.1717 9.92082C14.245 10.1375 14.3167 10.2967 14.39 10.39L14.7467 10.8575C14.8001 10.9316 14.8321 11.0189 14.8392 11.11C14.8392 11.195 14.7983 11.2667 14.7158 11.3267C13.8808 12.0575 13.4217 12.4533 13.35 12.5167C13.2358 12.6108 13.0892 12.6208 12.9125 12.5492C12.7842 12.4411 12.6621 12.3259 12.5467 12.2042L12.3317 11.9617C12.2892 11.9092 12.2142 11.8167 12.11 11.6683L11.9017 11.3658C11.3383 11.9825 10.7867 12.37 10.2333 12.5267C9.88834 12.6308 9.47167 12.6833 8.95917 12.6833C8.18751 12.6833 7.54167 12.4458 7.04001 11.9642C6.54167 11.4842 6.29001 10.8067 6.29001 9.91998L6.25417 9.86749L6.25501 9.86165V9.86165ZM8.86417 9.55582C8.86417 9.95165 8.96167 10.2658 9.16001 10.505C9.35667 10.7425 9.62917 10.8617 9.96417 10.8617C9.99334 10.8617 10.0375 10.855 10.0975 10.8467C10.1625 10.8367 10.19 10.83 10.215 10.83C10.6417 10.7192 10.9667 10.4458 11.2058 10.0117C11.3213 9.81538 11.4054 9.60225 11.455 9.37998C11.5183 9.15665 11.5383 8.96832 11.5475 8.82499C11.5608 8.68665 11.5608 8.44749 11.5608 8.12499V7.74915C10.975 7.74915 10.5275 7.78998 10.2242 7.87248C9.33834 8.12498 8.88751 8.68665 8.88751 9.56332L8.86334 9.54998V9.55582H8.86417ZM15.2358 14.4433C15.2567 14.4008 15.2883 14.3667 15.3267 14.3242C15.5775 14.1567 15.8233 14.0392 16.0575 13.9775C16.4241 13.8832 16.7994 13.8271 17.1775 13.81C17.275 13.8017 17.3725 13.81 17.4658 13.8308C17.915 13.8733 18.1933 13.9483 18.28 14.0583C18.3242 14.1233 18.3417 14.2175 18.3417 14.3317V14.4358C18.3417 14.7908 18.2442 15.2075 18.0517 15.6875C17.8592 16.1675 17.5908 16.555 17.2492 16.8558C17.1983 16.8967 17.1533 16.9175 17.1125 16.9175C17.0917 16.9175 17.07 16.9175 17.0508 16.9092C16.9875 16.8783 16.9758 16.8258 17.005 16.7417C17.3808 15.8658 17.565 15.2525 17.565 14.9075C17.565 14.8017 17.5442 14.7183 17.5033 14.6667C17.4042 14.5525 17.1225 14.4858 16.6533 14.4858C16.4511 14.4888 16.249 14.4997 16.0475 14.5183C15.795 14.5525 15.5625 14.5833 15.3525 14.6142C15.2908 14.6142 15.25 14.6025 15.2275 14.5833C15.2067 14.5625 15.2017 14.5508 15.2125 14.53C15.2125 14.5183 15.2175 14.5092 15.2275 14.4858V14.445L15.2358 14.4433V14.4433Z" fill="#F8981D"/>
</svg>
