<svg width="20" height="20" viewBox="0 0 20 20" fill="none" xmlns="http://www.w3.org/2000/svg">
<path d="M10.0675 5.85076L11.6005 3.95944C13.5211 4.06507 15.3099 4.52696 16.9388 5.28137L16.8478 5.24324C16.3378 5.91675 15.6574 6.43923 14.8782 6.7558L14.8466 6.76705C14.7562 5.86764 14.1318 5.64826 12.1498 5.64826L10.0681 17.5L7.97403 5.64576C6.00442 5.64576 5.38009 5.86702 5.28904 6.7658C4.50224 6.45513 3.81378 5.93473 3.29713 5.26011L3.28908 5.24949C4.82575 4.53196 6.6145 4.06882 8.4974 3.96381L8.53518 3.96194L10.0681 5.85076H10.0675ZM10.0675 3.41316C10.1338 3.41191 10.2118 3.41191 10.2899 3.41191C12.7469 3.41191 15.0826 3.93693 17.1922 4.88197L17.0838 4.83885C17.2405 4.57325 17.3752 4.29499 17.4864 4.00694L17.5 3.96756C15.3006 3.05315 12.7488 2.51563 10.0737 2.5H10.0675C7.47183 2.51068 4.9025 3.02593 2.5 4.01756L2.63502 3.96819C2.77376 4.31508 2.91312 4.60259 3.07044 4.87947L3.05124 4.84322C5.05678 3.93819 7.39739 3.41129 9.86064 3.41129L10.0787 3.41254H10.0675V3.41316Z" fill="#E82127"/>
</svg>
